<?xml version="1.0" encoding="us-ascii" standalone="no"?><svg xmlns="http://www.w3.org/2000/svg" xmlns:xlink="http://www.w3.org/1999/xlink" contentStyleType="text/css" height="869px" preserveAspectRatio="none" style="width:731px;height:869px;background:#FFFFFF;" version="1.1" viewBox="0 0 731 869" width="731px" zoomAndPan="magnify"><defs/><g><!--class Transaction--><g id="elem_Transaction"><rect codeLine="14" fill="#FFFFCC" height="80.4799" id="Transaction" rx="2.5" ry="2.5" style="stroke:#999900;stroke-width:0.5;" width="200" x="124" y="636"/><ellipse cx="182.75" cy="658.706" fill="#B4A7E5" rx="11" ry="11" style="stroke:#181818;stroke-width:1.0;"/><path d="M178.6719,654.4716 L178.6719,652.3154 L186.0625,652.3154 L186.0625,654.4716 L183.5938,654.4716 L183.5938,662.5498 L186.0625,662.5498 L186.0625,664.706 L178.6719,664.706 L178.6719,662.5498 L181.1406,662.5498 L181.1406,654.4716 L178.6719,654.4716 Z " fill="#000000"/><text fill="#000000" font-family="sans-serif" font-size="12" font-style="italic" lengthAdjust="spacing" textLength="59" x="210.75" y="653.8281">&#171;interface&#187;</text><text fill="#000000" font-family="sans-serif" font-size="14" font-style="italic" lengthAdjust="spacing" textLength="74" x="203.25" y="672.31">Transaction</text><line style="stroke:#999900;stroke-width:0.5;" x1="125" x2="323" y1="681.412" y2="681.412"/><line style="stroke:#999900;stroke-width:0.5;" x1="125" x2="323" y1="689.412" y2="689.412"/><text fill="#000000" font-family="sans-serif" font-size="14" lengthAdjust="spacing" textLength="188" x="130" y="708.378">+register(account : Account)</text></g><!--class Deposit--><g id="elem_Deposit"><rect codeLine="18" fill="#FFFFCC" height="86.1358" id="Deposit" rx="2.5" ry="2.5" style="stroke:#999900;stroke-width:0.5;" width="200" x="7" y="776"/><ellipse cx="77.25" cy="792" fill="#ADD1B2" rx="11" ry="11" style="stroke:#181818;stroke-width:1.0;"/><path d="M80.2188,797.6406 Q79.6406,797.9375 79,798.0781 Q78.3594,798.2344 77.6563,798.2344 Q75.1563,798.2344 73.8281,796.5938 Q72.5156,794.9375 72.5156,791.8125 Q72.5156,788.6875 73.8281,787.0313 Q75.1563,785.375 77.6563,785.375 Q78.3594,785.375 79,785.5313 Q79.6563,785.6875 80.2188,785.9844 L80.2188,788.7031 Q79.5938,788.125 79,787.8594 Q78.4063,787.5781 77.7813,787.5781 Q76.4375,787.5781 75.75,788.6563 Q75.0625,789.7188 75.0625,791.8125 Q75.0625,793.9063 75.75,794.9844 Q76.4375,796.0469 77.7813,796.0469 Q78.4063,796.0469 79,795.7813 Q79.5938,795.5 80.2188,794.9219 L80.2188,797.6406 Z " fill="#000000"/><text fill="#000000" font-family="sans-serif" font-size="14" lengthAdjust="spacing" textLength="51" x="97.75" y="797.432">Deposit</text><line style="stroke:#999900;stroke-width:0.5;" x1="8" x2="206" y1="808" y2="808"/><text fill="#000000" font-family="sans-serif" font-size="14" lengthAdjust="spacing" textLength="83" x="13" y="826.9659">-value : float</text><line style="stroke:#999900;stroke-width:0.5;" x1="8" x2="206" y1="835.0679" y2="835.0679"/><text fill="#000000" font-family="sans-serif" font-size="14" lengthAdjust="spacing" textLength="188" x="13" y="854.0339">+register(account : Account)</text></g><!--class Withdrawal--><g id="elem_Withdrawal"><rect codeLine="23" fill="#FFFFCC" height="86.1358" id="Withdrawal" rx="2.5" ry="2.5" style="stroke:#999900;stroke-width:0.5;" width="200" x="242" y="776"/><ellipse cx="299.25" cy="792" fill="#ADD1B2" rx="11" ry="11" style="stroke:#181818;stroke-width:1.0;"/><path d="M302.2188,797.6406 Q301.6406,797.9375 301,798.0781 Q300.3594,798.2344 299.6563,798.2344 Q297.1563,798.2344 295.8281,796.5938 Q294.5156,794.9375 294.5156,791.8125 Q294.5156,788.6875 295.8281,787.0313 Q297.1563,785.375 299.6563,785.375 Q300.3594,785.375 301,785.5313 Q301.6563,785.6875 302.2188,785.9844 L302.2188,788.7031 Q301.5938,788.125 301,787.8594 Q300.4063,787.5781 299.7813,787.5781 Q298.4375,787.5781 297.75,788.6563 Q297.0625,789.7188 297.0625,791.8125 Q297.0625,793.9063 297.75,794.9844 Q298.4375,796.0469 299.7813,796.0469 Q300.4063,796.0469 301,795.7813 Q301.5938,795.5 302.2188,794.9219 L302.2188,797.6406 Z " fill="#000000"/><text fill="#000000" font-family="sans-serif" font-size="14" lengthAdjust="spacing" textLength="77" x="319.75" y="797.432">Withdrawal</text><line style="stroke:#999900;stroke-width:0.5;" x1="243" x2="441" y1="808" y2="808"/><text fill="#000000" font-family="sans-serif" font-size="14" lengthAdjust="spacing" textLength="83" x="248" y="826.9659">-value : float</text><line style="stroke:#999900;stroke-width:0.5;" x1="243" x2="441" y1="835.0679" y2="835.0679"/><text fill="#000000" font-family="sans-serif" font-size="14" lengthAdjust="spacing" textLength="188" x="248" y="854.0339">+register(account : Account)</text></g><!--class History--><g id="elem_History"><rect codeLine="28" fill="#FFFFCC" height="105.2038" id="History" rx="2.5" ry="2.5" style="stroke:#999900;stroke-width:0.5;" width="303" x="175.5" y="471"/><ellipse cx="299.25" cy="487" fill="#ADD1B2" rx="11" ry="11" style="stroke:#181818;stroke-width:1.0;"/><path d="M302.2188,492.6406 Q301.6406,492.9375 301,493.0781 Q300.3594,493.2344 299.6563,493.2344 Q297.1563,493.2344 295.8281,491.5938 Q294.5156,489.9375 294.5156,486.8125 Q294.5156,483.6875 295.8281,482.0313 Q297.1563,480.375 299.6563,480.375 Q300.3594,480.375 301,480.5313 Q301.6563,480.6875 302.2188,480.9844 L302.2188,483.7031 Q301.5938,483.125 301,482.8594 Q300.4063,482.5781 299.7813,482.5781 Q298.4375,482.5781 297.75,483.6563 Q297.0625,484.7188 297.0625,486.8125 Q297.0625,488.9063 297.75,489.9844 Q298.4375,491.0469 299.7813,491.0469 Q300.4063,491.0469 301,490.7813 Q301.5938,490.5 302.2188,489.9219 L302.2188,492.6406 Z " fill="#000000"/><text fill="#000000" font-family="sans-serif" font-size="14" lengthAdjust="spacing" textLength="47" x="319.75" y="492.432">History</text><line style="stroke:#999900;stroke-width:0.5;" x1="176.5" x2="477.5" y1="503" y2="503"/><text fill="#000000" font-family="sans-serif" font-size="14" lengthAdjust="spacing" textLength="209" x="181.5" y="521.9659">-transactions : list[Transaction]</text><line style="stroke:#999900;stroke-width:0.5;" x1="176.5" x2="477.5" y1="530.0679" y2="530.0679"/><text fill="#000000" font-family="sans-serif" font-size="14" lengthAdjust="spacing" textLength="291" x="181.5" y="549.0339">+add_transaction(transaction : Transaction)</text><text fill="#000000" font-family="sans-serif" font-size="14" lengthAdjust="spacing" textLength="248" x="181.5" y="568.1018">+get_transactions() : list[Transaction]</text></g><!--class Account--><g id="elem_Account"><rect codeLine="34" fill="#FFFFCC" height="200.5433" id="Account" rx="2.5" ry="2.5" style="stroke:#999900;stroke-width:0.5;" width="361" x="174.5" y="210"/><ellipse cx="326.25" cy="226" fill="#A9DCDF" rx="11" ry="11" style="stroke:#181818;stroke-width:1.0;"/><path d="M326.3594,221.3438 L325.2031,226.4219 L327.5313,226.4219 L326.3594,221.3438 Z M324.875,219.1094 L327.8594,219.1094 L331.2188,231.5 L328.7656,231.5 L328,228.4375 L324.7188,228.4375 L323.9688,231.5 L321.5313,231.5 L324.875,219.1094 Z " fill="#000000"/><text fill="#000000" font-family="sans-serif" font-size="14" font-style="italic" lengthAdjust="spacing" textLength="49" x="346.75" y="231.432">Account</text><line style="stroke:#999900;stroke-width:0.5;" x1="175.5" x2="534.5" y1="242" y2="242"/><text fill="#000000" font-family="sans-serif" font-size="14" lengthAdjust="spacing" textLength="100" x="180.5" y="260.9659">-balance : float</text><text fill="#000000" font-family="sans-serif" font-size="14" lengthAdjust="spacing" textLength="89" x="180.5" y="280.0339">-number : int</text><text fill="#000000" font-family="sans-serif" font-size="14" lengthAdjust="spacing" textLength="83" x="180.5" y="299.1018">-branch : str</text><text fill="#000000" font-family="sans-serif" font-size="14" lengthAdjust="spacing" textLength="110" x="180.5" y="318.1697">-history : History</text><line style="stroke:#999900;stroke-width:0.5;" x1="175.5" x2="534.5" y1="326.2717" y2="326.2717"/><text fill="#000000" font-family="sans-serif" font-size="14" lengthAdjust="spacing" text-decoration="underline" textLength="349" x="180.5" y="345.2376">+new_account(client : Client, number : int) : Account</text><text fill="#000000" font-family="sans-serif" font-size="14" lengthAdjust="spacing" textLength="139" x="180.5" y="364.3055">+get_balance() : float</text><text fill="#000000" font-family="sans-serif" font-size="14" lengthAdjust="spacing" textLength="198" x="180.5" y="383.3734">+withdraw(value : float) : bool</text><text fill="#000000" font-family="sans-serif" font-size="14" lengthAdjust="spacing" textLength="185" x="180.5" y="402.4414">+deposit(value : float) : bool</text></g><!--class CheckingAccount--><g id="elem_CheckingAccount"><rect codeLine="45" fill="#FFFFCC" height="105.2038" id="CheckingAccount" rx="2.5" ry="2.5" style="stroke:#999900;stroke-width:0.5;" width="210" x="514" y="471"/><ellipse cx="556.9" cy="487" fill="#ADD1B2" rx="11" ry="11" style="stroke:#181818;stroke-width:1.0;"/><path d="M559.8688,492.6406 Q559.2906,492.9375 558.65,493.0781 Q558.0094,493.2344 557.3063,493.2344 Q554.8063,493.2344 553.4781,491.5938 Q552.1656,489.9375 552.1656,486.8125 Q552.1656,483.6875 553.4781,482.0313 Q554.8063,480.375 557.3063,480.375 Q558.0094,480.375 558.65,480.5313 Q559.3063,480.6875 559.8688,480.9844 L559.8688,483.7031 Q559.2438,483.125 558.65,482.8594 Q558.0563,482.5781 557.4313,482.5781 Q556.0875,482.5781 555.4,483.6563 Q554.7125,484.7188 554.7125,486.8125 Q554.7125,488.9063 555.4,489.9844 Q556.0875,491.0469 557.4313,491.0469 Q558.0563,491.0469 558.65,490.7813 Q559.2438,490.5 559.8688,489.9219 L559.8688,492.6406 Z " fill="#000000"/><text fill="#000000" font-family="sans-serif" font-size="14" lengthAdjust="spacing" textLength="116" x="577.1" y="492.432">CheckingAccount</text><line style="stroke:#999900;stroke-width:0.5;" x1="515" x2="723" y1="503" y2="503"/><text fill="#000000" font-family="sans-serif" font-size="14" lengthAdjust="spacing" textLength="77" x="520" y="521.9659">-limit : float</text><text fill="#000000" font-family="sans-serif" font-size="14" lengthAdjust="spacing" textLength="146" x="520" y="541.0339">-withdrawal_limit : int</text><line style="stroke:#999900;stroke-width:0.5;" x1="515" x2="723" y1="549.1358" y2="549.1358"/><text fill="#000000" font-family="sans-serif" font-size="14" lengthAdjust="spacing" textLength="198" x="520" y="568.1018">+withdraw(value : float) : bool</text></g><!--class Client--><g id="elem_Client"><rect codeLine="51" fill="#FFFFCC" height="143.3396" id="Client" rx="2.5" ry="2.5" style="stroke:#999900;stroke-width:0.5;" width="440" x="135" y="7"/><ellipse cx="332.75" cy="23" fill="#A9DCDF" rx="11" ry="11" style="stroke:#181818;stroke-width:1.0;"/><path d="M332.8594,18.3438 L331.7031,23.4219 L334.0313,23.4219 L332.8594,18.3438 Z M331.375,16.1094 L334.3594,16.1094 L337.7188,28.5 L335.2656,28.5 L334.5,25.4375 L331.2188,25.4375 L330.4688,28.5 L328.0313,28.5 L331.375,16.1094 Z " fill="#000000"/><text fill="#000000" font-family="sans-serif" font-size="14" font-style="italic" lengthAdjust="spacing" textLength="36" x="353.25" y="28.432">Client</text><line style="stroke:#999900;stroke-width:0.5;" x1="136" x2="574" y1="39" y2="39"/><text fill="#000000" font-family="sans-serif" font-size="14" lengthAdjust="spacing" textLength="89" x="141" y="57.9659">-address : str</text><text fill="#000000" font-family="sans-serif" font-size="14" lengthAdjust="spacing" textLength="161" x="141" y="77.0339">-accounts : list[Account]</text><line style="stroke:#999900;stroke-width:0.5;" x1="136" x2="574" y1="85.1358" y2="85.1358"/><text fill="#000000" font-family="sans-serif" font-size="14" lengthAdjust="spacing" textLength="428" x="141" y="104.1018">+make_transaction(account : Account, transaction : Transaction)</text><text fill="#000000" font-family="sans-serif" font-size="14" lengthAdjust="spacing" textLength="220" x="141" y="123.1697">+add_account(account : Account)</text><text fill="#000000" font-family="sans-serif" font-size="14" lengthAdjust="spacing" textLength="200" x="141" y="142.2376">+get_accounts() : list[Account]</text></g><!--class Individual--><g id="elem_Individual"><rect codeLine="59" fill="#FFFFCC" height="105.2038" id="Individual" rx="2.5" ry="2.5" style="stroke:#999900;stroke-width:0.5;" width="147" x="570.5" y="258"/><ellipse cx="606.65" cy="274" fill="#ADD1B2" rx="11" ry="11" style="stroke:#181818;stroke-width:1.0;"/><path d="M609.6188,279.6406 Q609.0406,279.9375 608.4,280.0781 Q607.7594,280.2344 607.0563,280.2344 Q604.5563,280.2344 603.2281,278.5938 Q601.9156,276.9375 601.9156,273.8125 Q601.9156,270.6875 603.2281,269.0313 Q604.5563,267.375 607.0563,267.375 Q607.7594,267.375 608.4,267.5313 Q609.0563,267.6875 609.6188,267.9844 L609.6188,270.7031 Q608.9938,270.125 608.4,269.8594 Q607.8063,269.5781 607.1813,269.5781 Q605.8375,269.5781 605.15,270.6563 Q604.4625,271.7188 604.4625,273.8125 Q604.4625,275.9063 605.15,276.9844 Q605.8375,278.0469 607.1813,278.0469 Q607.8063,278.0469 608.4,277.7813 Q608.9938,277.5 609.6188,276.9219 L609.6188,279.6406 Z " fill="#000000"/><text fill="#000000" font-family="sans-serif" font-size="14" lengthAdjust="spacing" textLength="68" x="625.35" y="279.432">Individual</text><line style="stroke:#999900;stroke-width:0.5;" x1="571.5" x2="716.5" y1="290" y2="290"/><text fill="#000000" font-family="sans-serif" font-size="14" lengthAdjust="spacing" textLength="56" x="576.5" y="308.9659">-cpf : str</text><text fill="#000000" font-family="sans-serif" font-size="14" lengthAdjust="spacing" textLength="73" x="576.5" y="328.0339">-name : str</text><text fill="#000000" font-family="sans-serif" font-size="14" lengthAdjust="spacing" textLength="135" x="576.5" y="347.1018">-date_of_birth : date</text><line style="stroke:#999900;stroke-width:0.5;" x1="571.5" x2="716.5" y1="355.2038" y2="355.2038"/></g><!--reverse link Account to CheckingAccount--><g id="link_Account_CheckingAccount"><path codeLine="65" d="M493.7209,422.3679 C519.6209,443.0679 531.83,452.83 554.49,470.94 " fill="none" id="Account-backto-CheckingAccount" style="stroke:#333333;stroke-width:1.0;"/><polygon fill="none" points="479.66,411.13,489.975,427.0549,497.4669,417.6809,479.66,411.13" style="stroke:#333333;stroke-width:1.0;"/></g><!--reverse link Client to Individual--><g id="link_Client_Individual"><path codeLine="66" d="M487.5559,160.111 C514.8959,178.381 528.26,188.89 553,210 C569.83,224.36 586.63,241.67 601.14,257.81 " fill="none" id="Client-backto-Individual" style="stroke:#333333;stroke-width:1.0;"/><polygon fill="none" points="472.59,150.11,484.2223,165.0997,490.8896,155.1224,472.59,150.11" style="stroke:#333333;stroke-width:1.0;"/></g><!--reverse link Transaction to Deposit--><g id="link_Transaction_Deposit"><path codeLine="68" d="M179.9146,730.1312 C164.4946,748.7112 157.57,757.06 141.87,775.98 " fill="none" id="Transaction-backto-Deposit" style="stroke:#333333;stroke-width:1.0;stroke-dasharray:7.0,7.0;"/><polygon fill="none" points="191.41,716.28,175.2975,726.2994,184.5316,733.963,191.41,716.28" style="stroke:#333333;stroke-width:1.0;"/></g><!--reverse link Transaction to Withdrawal--><g id="link_Transaction_Withdrawal"><path codeLine="69" d="M268.4225,730.0836 C283.9725,748.6636 291,757.06 306.83,775.98 " fill="none" id="Transaction-backto-Withdrawal" style="stroke:#333333;stroke-width:1.0;stroke-dasharray:7.0,7.0;"/><polygon fill="none" points="256.87,716.28,263.8213,733.9344,273.0237,726.2328,256.87,716.28" style="stroke:#333333;stroke-width:1.0;"/></g><!--reverse link Account to History--><g id="link_Account_History"><path codeLine="71" d="M340.1997,423.0255 C337.4497,443.7255 336.24,452.83 333.84,470.94 " fill="none" id="Account-backto-History" style="stroke:#333333;stroke-width:1.0;"/><polygon fill="#333333" points="341.78,411.13,337.0247,416.551,340.1997,423.0255,344.955,417.6045,341.78,411.13" style="stroke:#333333;stroke-width:1.0;"/><text fill="#000000" font-family="sans-serif" font-size="13" lengthAdjust="spacing" textLength="7" x="305.3705" y="441.3111">1</text><text fill="#000000" font-family="sans-serif" font-size="13" lengthAdjust="spacing" textLength="46" x="285.8705" y="459.0172">-history</text></g><!--reverse link History to Transaction--><g id="link_History_Transaction"><path codeLine="73" d="M284.7749,586.1944 C271.3949,605.7544 263.18,617.75 250.72,635.95 " fill="none" id="History-backto-Transaction" style="stroke:#333333;stroke-width:1.0;"/><polygon fill="none" points="291.55,576.29,284.861,578.9838,284.7749,586.1944,291.4639,583.5006,291.55,576.29" style="stroke:#333333;stroke-width:1.0;"/><text fill="#000000" font-family="sans-serif" font-size="13" lengthAdjust="spacing" textLength="7" x="295.8726" y="606.3894">*</text><text fill="#000000" font-family="sans-serif" font-size="13" lengthAdjust="spacing" textLength="78" x="260.3726" y="624.0954">-transactions</text></g><!--link Client to Account--><g id="link_Client_Account"><path codeLine="75" d="M355,150.07 C355,168.95 355,177.73 355,197.86 " fill="none" id="Client-to-Account" style="stroke:#333333;stroke-width:1.0;"/><polygon fill="none" points="355,209.86,359,203.86,355,197.86,351,203.86,355,209.86" style="stroke:#333333;stroke-width:1.0;"/><text fill="#000000" font-family="sans-serif" font-size="13" lengthAdjust="spacing" textLength="7" x="331.8406" y="172.1815">1</text><text fill="#000000" font-family="sans-serif" font-size="13" lengthAdjust="spacing" textLength="36" x="317.3406" y="189.8875">-client</text><text fill="#000000" font-family="sans-serif" font-size="13" lengthAdjust="spacing" textLength="7" x="382.5391" y="180.4808">*</text><text fill="#000000" font-family="sans-serif" font-size="13" lengthAdjust="spacing" textLength="58" x="357.0391" y="198.1869">-accounts</text></g><!--link Client to Transaction--><g id="link_Client_Transaction"><path codeLine="77" d="M209.51,150.07 C188.41,166.74 169.59,186.62 157,210 C79.87,353.22 110.39,420.46 158,576 C164.59,597.53 173.9647,613.8442 186.6647,631.0342 " fill="none" id="Client-to-Transaction" style="stroke:#333333;stroke-width:1.0;"/><polygon fill="#333333" points="190.23,635.86,188.0992,626.2444,187.2589,631.8385,181.6648,630.9982,190.23,635.86" style="stroke:#333333;stroke-width:1.0;"/><text fill="#000000" font-family="sans-serif" font-size="13" lengthAdjust="spacing" textLength="55" x="136.361" y="172.2431">performs</text><text fill="#000000" font-family="sans-serif" font-size="13" lengthAdjust="spacing" textLength="7" x="176.5913" y="624.1131">*</text></g><!--SRC=[fLHTRzCm57tthx32IpgMgGE1n5HLwi8GUmPf3u0Ynt5RguvTsSuYsFhVkKbinsdBb_1JSk-vvtuTs-out1DDQam5CMPbhUPbOzazLV8J_y7m79a0AGdTRRHgP9KheJH-yQ4_4Q8dmKy8mxazXyxpmQTqnRIpluCpd_VsbTQgTURN_K67Y9wKncf2RVxxD7VpsrUdQUxUlhc6D0U4kBHChmbb-BCcqW0XLn8l5i6-N3hobrYp3JTWJWcbaCJY6xmQlcOTrT3mUxPNXbiNbE578Xe6oBLGnFuBqGEtsqgJbeZ_v_e84AM_1o8xzceWG83xIzJ_DyTDggg8e6dq3L5HmCm5R9YD0qmwEyiETVdrEPcuaaE19H54qccl6PPDNJ8DHjYE1m8ltO89w9nfwvgzyMsxufwC9PRJ0vQiBToqKYeuwuUMzn-NanopSPXHWwwslhTu4wrRM3fPKuSgbH8EL0to-0KcB2pVCWfItnpFHV2QswEfj44eXNTp-PT5dMvYc4D821BGp9Z9WDtiWd9SaLurDTcnYMnEb7c9_wYaJdf-HsUKFMx35pDABPGJfdalA_x8goQwIdI_dlGaISqcXefOLgXrKN9jEtrr_nsZtyZYESkEruJSy0Rdc1MXoUFoV7NbdubJntZjnrmNm9PSVvMPatOIb8typLOTv08WyVLBuiaYNrtFDEW-mLccXZW_noGeFk0ntiDRg7HjElmIy5FYdm00]--></g></svg>